<?xml version="1.0" encoding="UTF-8"?>
<svg xmlns="http://www.w3.org/2000/svg" xmlns:xlink="http://www.w3.org/1999/xlink" width="141.8pt" height="46.2pt" viewBox="0 0 141.8 46.2" version="1.1">
<defs>
<clipPath id="clip1">
  <path d="M 0 0 L 141.800781 0 L 141.800781 46.199219 L 0 46.199219 Z M 0 0 "/>
</clipPath>
</defs>
<g id="surface1">
<g clip-path="url(#clip1)" clip-rule="nonzero">
<path style=" stroke:none;fill-rule:evenodd;fill:rgb(12.939453%,65.429688%,24.705505%);fill-opacity:1;" d="M 29.253906 -0.03125 L 42.675781 -0.03125 L 42.675781 13.390625 L 29.253906 13.390625 Z M 31.570313 2.28125 L 40.363281 2.28125 L 40.363281 11.074219 L 31.570313 11.074219 Z M 33.667969 4.382813 L 38.261719 4.382813 L 38.261719 8.976563 L 33.667969 8.976563 Z M 7.09375 7.234375 L 14.351563 7.234375 C 20.308594 7.234375 25.183594 12.109375 25.183594 18.066406 C 25.183594 24.023438 20.308594 28.894531 14.351563 28.894531 L 7.09375 28.894531 L 7.09375 37.230469 L 0.0703125 37.230469 L 0.0703125 12.511719 L 7.09375 12.511719 Z M 7.09375 12.539063 L 7.09375 23.589844 L 13.089844 23.589844 C 16.128906 23.589844 18.613281 21.101563 18.613281 18.066406 C 18.613281 15.027344 16.128906 12.539063 13.089844 12.539063 Z M 29.253906 18.003906 L 36.273438 18.003906 L 36.273438 37.230469 L 29.253906 37.230469 Z M 73.644531 7.234375 L 80.902344 7.234375 C 86.859375 7.234375 91.734375 12.109375 91.734375 18.066406 C 91.734375 24.023438 86.859375 28.894531 80.902344 28.894531 L 73.644531 28.894531 L 73.644531 37.230469 L 66.621094 37.230469 L 66.621094 12.511719 L 73.644531 12.511719 Z M 73.644531 12.539063 L 73.644531 23.589844 L 79.640625 23.589844 C 82.679688 23.589844 85.164063 21.101563 85.164063 18.066406 C 85.164063 15.027344 82.679688 12.539063 79.640625 12.539063 Z M 52.589844 13.910156 C 56.582031 13.910156 60.121094 15.796875 62.328125 18.710938 L 58.515625 22.523438 C 57.460938 20.53125 55.464844 19.1875 53.175781 19.1875 C 49.789063 19.1875 47.042969 22.128906 47.042969 25.757813 C 47.042969 29.382813 49.789063 32.324219 53.175781 32.324219 C 55.464844 32.324219 57.460938 30.980469 58.515625 28.988281 L 62.328125 32.796875 C 60.121094 35.714844 56.582031 37.601563 52.589844 37.601563 C 45.898438 37.601563 40.476563 32.296875 40.476563 25.757813 C 40.476563 19.214844 45.898438 13.910156 52.589844 13.910156 Z M 122.335938 46.148438 L 129.226563 46.148438 L 141.84375 14.203125 L 134.953125 14.203125 L 129.164063 28.855469 L 123.378906 14.203125 L 116.488281 14.203125 L 125.71875 37.578125 Z M 114.820313 36.75 L 108.449219 36.75 L 108.449219 34.976563 C 100.878906 39.917969 94.542969 36.683594 93.78125 31.808594 C 92.929688 26.359375 96.226563 22.40625 109.078125 23.492188 C 109.101563 18.59375 101.8125 17.953125 96.859375 21.40625 L 94.5625 16.8125 C 103.648438 11.964844 114.78125 13.445313 114.820313 21.507813 Z M 109.285156 27.148438 L 103.855469 27.148438 C 98.421875 27.148438 99.613281 34.214844 104.796875 33.097656 C 107.464844 32.523438 109.117188 30.753906 109.285156 27.148438 Z M 109.285156 27.148438 "/>
</g>
</g>
</svg>
